PathFileType	4	(X/Y/Z)	Run_400 02
DataRate	CameraRate	NumFrames	NumMarkers	Units	OrigDataRate	OrigDataStartFrame	OrigNumFrames
100	100	4	42	mm	100	151	128
Frame#	Time	LASI			RASI			LPSI			RPSI			RTH1			RTH3			LTH1			LTH2			LTH3			RTB1			RTB2			LTB1			LTB2			RCAL			RTOE			LCAL			LTOE			LACR			RACR			CLAV			C7			RUA1			RUA2			RUA3			RLEL			RMEL			LUA1			LUA2			LUA3			LLEL			LMEL			RFAsuperior			RFAradius			RFAulna			LFAsuperior			LFAradius			LFAulna			RTH2			RTB3			RMT5			LMT5			LTB3			
		X1	Y1	Z1	X2	Y2	Z2	X3	Y3	Z3	X4	Y4	Z4	X5	Y5	Z5	X6	Y6	Z6	X7	Y7	Z7	X8	Y8	Z8	X9	Y9	Z9	X10	Y10	Z10	X11	Y11	Z11	X12	Y12	Z12	X13	Y13	Z13	X14	Y14	Z14	X15	Y15	Z15	X16	Y16	Z16	X17	Y17	Z17	X18	Y18	Z18	X19	Y19	Z19	X20	Y20	Z20	X21	Y21	Z21	X22	Y22	Z22	X23	Y23	Z23	X24	Y24	Z24	X25	Y25	Z25	X26	Y26	Z26	X27	Y27	Z27	X28	Y28	Z28	X29	Y29	Z29	X30	Y30	Z30	X31	Y31	Z31	X32	Y32	Z32	X33	Y33	Z33	X34	Y34	Z34	X35	Y35	Z35	X36	Y36	Z36	X37	Y37	Z37	X38	Y38	Z38	X39	Y39	Z39	X40	Y40	Z40	X41	Y41	Z41	X42	Y42	Z42	

148	1.66	772.411265	964.6268710000001	-442.714123	776.66728	974.0212299999999	-189.800745	600.112427	1068.871856	-362.681809	600.066268	1067.548616	-278.180963	697.7413749999999	849.056374	-135.516626	661.149283	608.01278	-176.766277	746.723898	882.632749	-503.755019	864.845026	814.605189	-473.468834	858.871397	665.409282	-476.287382	646.115392	361.469853	-249.203361	550.091135	298.219378	-210.478303	838.943177	498.704417	-393.865514	747.71231	525.722937	-463.797714	334.69173	141.50212	-310.251999	552.49845	63.598194	-284.614548	461.124453	551.53706	-373.634543	513.311247	324.712678	-365.124942	765.593589	1520.736088	-455.618826	768.600566	1475.074186	-113.340273	843.625883	1454.112698	-264.911312	707.828356	1538.684093	-293.8812	730.716266	1357.441172	-34.107334	662.470179	1273.305751	-50.689559	711.409937	1240.344076	-3.807052	714.703022	1146.01942	21.544391	677.5913849999999	1120.073215	-48.66067	692.821431	1454.948854	-558.790441	608.941477	1399.449892	-556.5690070000001	640.412471	1371.353568	-627.11371	615.965702	1296.925607	-675.375526	548.23438	1283.505573	-634.56181	787.789447	1112.196804	1.265586	961.019963	1135.018858	-105.215297	948.691984	1064.383146	-90.620182	667.460658	1184.619871	-637.657827	743.705891	1106.580215	-523.65744	697.65099	1070.103061	-557.2788420000001	742.917599	709.355919	-153.064232	519.3786250000001	206.732617	-280.397261	506.025056	52.811351	-199.635478	474.829638	342.928779	-446.780514	635.622831	464.924392	-377.312811	
149	1.67	772.124319	970.838797	-440.581421	777.3846129999999	978.284281	-188.044684	602.168456	1076.204648	-362.049131	601.666156	1073.580558	-277.361328	693.092774	854.003186	-137.064928	643.477246	615.788142	-176.893362	752.642016	895.4458509999999	-504.140475	871.205593	830.2679419999999	-472.247986	869.75382	680.466625	-475.838281	618.703411	368.735771	-247.379634	521.066832	308.412944	-208.675853	859.854838	506.852219	-393.787979	765.491384	524.400652	-461.907873	304.58876	157.344635	-308.748368	512.9816939999999	63.309373	-284.481899	477.667934	518.937464	-371.232666	555.935519	299.732171	-361.846493	762.239299	1530.048695	-455.996901	771.9639110000001	1483.589509	-114.839206	843.532596	1463.063584	-267.810218	707.348512	1546.362861	-293.948303	736.694221	1365.106862	-35.492704	668.875657	1281.190984	-49.326474	720.162717	1247.414322	-5.661199	723.858064	1153.138828	18.622736	685.710233	1127.429664	-51.865077	686.104958	1467.124102	-557.451106	601.63841	1413.709519	-553.916817	630.31681	1385.101229	-625.437304	602.099173	1311.531218	-673.2753300000001	535.747929	1299.764596	-630.911525	797.684674	1122.804751	-3.576575	967.554629	1154.06596	-113.321193	959.223667	1082.962119	-98.210114	652.734763	1198.986335	-636.3274259999999	731.8115	1120.656668	-524.834024	682.924919	1084.442873	-554.703941	731.748968	712.9660689999999	-153.921233	490.145654	215.553317	-278.556131	466.869451	53.357544	-199.912677	514.423477	312.291265	-442.463975	660.486174	451.864032	-375.851714	
150	1.68	772.365346	977.467712	-437.627004	778.634231	982.989521	-185.511171	604.7837019999999	1083.984757	-361.194156	603.789815	1079.960653	-276.56935	689.804966	859.968923	-138.093688	627.144545	625.0060989999999	-176.921014	758.396012	908.279976	-504.301558	876.795519	845.177683	-471.305155	878.58147	694.305109	-475.650417	593.2529	377.846262	-245.672867	494.368274	319.994796	-206.495284	879.186232	513.92398	-394.354097	782.407125	522.054773	-460.408107	278.001745	174.822133	-307.038395	474.315665	63.486445	-284.836832	497.177072	484.327824	-368.950121	600.247823	275.820063	-358.616554	759.339682	1539.452062	-456.484764	775.399869	1492.54668	-116.715935	843.487477	1472.260287	-271.068661	706.871027	1554.357009	-294.322668	741.953396	1373.515383	-37.167651	674.4408100000001	1289.927886	-48.479948	727.8969039999999	1255.469386	-7.860326	731.7043619999999	1161.387619	15.670897	692.375322	1135.884076	-54.794962	680.244203	1479.347707	-556.048991	594.895027	1428.097521	-550.644774	620.783394	1398.881313	-623.094165	588.860322	1326.249619	-670.581994	523.936729	1315.826675	-626.335926	805.928858	1133.95198	-8.248400999999999	972.382491	1172.491948	-120.942604	967.364606	1101.161672	-105.779904	638.79645	1213.39359	-634.682734	720.899776	1134.899883	-525.589288	669.678739	1098.96852	-551.918975	721.536025	717.693662	-154.835962	463.892474	225.566208	-274.8567	428.657467	54.051227	-200.29291	556.46186	282.132062	-438.312505	686.199677	438.022671	-376.547231	
151	1.69	773.105956	984.399017	-434.764264	780.391466	988.027054	-183.043774	607.75855	1091.849471	-360.013368	606.521255	1086.505071	-275.530036	687.551674	866.319184	-138.305342	612.308496	635.215291	-177.190614	764.009086	920.67358	-504.053123	881.53024	858.561945	-470.923978	885.320245	706.343576	-475.502832	570.131061	388.38284	-244.047948	470.335095	332.459287	-203.967484	896.766452	519.679854	-395.27521	798.5718409999999	518.57759	-459.494734	255.593552	193.897352	-304.787729	437.152443	63.980263	-285.231015	519.8050950000001	448.328893	-366.442975	646.0517149999999	253.345701	-355.947935	756.920147	1548.51508	-457.147184	778.679126	1501.65053	-118.983281	843.428645	1481.195556	-274.622326	706.505286	1562.371534	-295.01918	746.753645	1382.473363	-38.795532	678.915012	1299.320597	-48.543982	734.238717	1264.154343	-10.366334	738.19052	1170.339153	12.616315	697.830785	1144.879638	-57.438944	675.153783	1491.093748	-554.7832	588.750388	1442.081577	-547.069139	611.8013130000001	1412.318218	-620.361856	576.292019	1340.666311	-667.488475	512.871567	1331.383649	-621.021149	812.4646300000001	1144.977333	-12.881824	975.7576299999999	1189.96871	-127.789695	973.266406	1118.539291	-113.235237	625.709549	1227.46797	-632.79596	711.0075849999999	1148.807925	-525.982966	657.965749	1113.303654	-549.213568	711.9682780000001	723.243387	-155.550174	440.740908	236.357542	-269.475226	391.458775	55.301818	-200.52133	600.588113	253.222821	-434.82998	712.8644839999999	423.53871	-378.144968	
